HIERARCHY
ROOT Hips
{
  OFFSET 1.44925e-005 102.336 -0.101585
  CHANNELS 6 Xposition Yposition Zposition Zrotation Xrotation Yrotation
  JOINT LeftUpLeg
  {
    OFFSET 8.9458 -8.66707 0.101652
    CHANNELS 3 Zrotation Xrotation Yrotation
    JOINT LeftLeg
    {
      OFFSET 0 -44.4227 1.3727
      CHANNELS 3 Zrotation Xrotation Yrotation
      JOINT LeftFoot
      {
        OFFSET -0.253549 -42.0924 -1.46059
        CHANNELS 3 Zrotation Xrotation Yrotation
        JOINT LeftToes
        {
          OFFSET -0.04 -4.41509 8.4991
          CHANNELS 3 Zrotation Xrotation Yrotation
          End Site
          {
            OFFSET 0.08 -0.047448 9.77979
          }
        }
      }
    }
  }
  JOINT Spine
  {
    OFFSET 0 11.8905 0
    CHANNELS 3 Zrotation Xrotation Yrotation
    JOINT Spine1
    {
      OFFSET 0 25.6574 0.127663
      CHANNELS 3 Zrotation Xrotation Yrotation
      JOINT RightShoulder
      {
        OFFSET -8.99 -0.362252 -0.22
        CHANNELS 3 Zrotation Xrotation Yrotation
        JOINT RightArm
        {
          OFFSET -10.2827 -0.00338 0.322123
          CHANNELS 3 Zrotation Xrotation Yrotation
          JOINT RightForeArm
          {
            OFFSET -26.364 0.099144 -1.42434
            CHANNELS 3 Zrotation Xrotation Yrotation
            JOINT RightHand
            {
              OFFSET -22.0324 0.085362 1.02216
              CHANNELS 3 Zrotation Xrotation Yrotation
              End Site
              {
                OFFSET -13.3284 -0.6 1.50291
              }
            }
          }
        }
      }
      JOINT LeftShoulder1
      {
        OFFSET 8.99 -0.362252 -0.22
        CHANNELS 3 Zrotation Xrotation Yrotation
        JOINT LeftArm
        {
          OFFSET 10.2827 -0.00337999 0.322123
          CHANNELS 3 Zrotation Xrotation Yrotation
          JOINT LeftForeArm
          {
            OFFSET 26.2597 0.099144 -1.42434
            CHANNELS 3 Zrotation Xrotation Yrotation
            JOINT LeftHand
            {
              OFFSET 22.0902 0.085362 1.02216
              CHANNELS 3 Zrotation Xrotation Yrotation
              End Site
              {
                OFFSET 13.419 -0.6 1.50291
              }
            }
          }
        }
      }
      JOINT Head
      {
        OFFSET 0 8.73416 0.011341
        CHANNELS 3 Zrotation Xrotation Yrotation
        End Site
        {
          OFFSET -0.29 12.7742 2.51395
        }
      }
    }
  }
  JOINT RightUpLeg
  {
    OFFSET -8.9458 -8.66707 0.101652
    CHANNELS 3 Zrotation Xrotation Yrotation
    JOINT RightLeg
    {
      OFFSET 0 -44.4227 1.3727
      CHANNELS 3 Zrotation Xrotation Yrotation
      JOINT RightFoot
      {
        OFFSET 0.253549 -42.0924 -1.46059
        CHANNELS 3 Zrotation Xrotation Yrotation
        JOINT RightToes
        {
          OFFSET 0.04 -4.41509 8.4991
          CHANNELS 3 Zrotation Xrotation Yrotation
          End Site
          {
            OFFSET -0.08 -0.137448 9.77979
          }
        }
      }
    }
  }
}
MOTION
Frames:	14
Frame Time:	0.0333333
66.1311 98.3703 4.217 -8.91601 -2.09041 -99.5014 -9.21924 -6.25478 -3.37777 1.33286 30.386 24.8192 -0.687636 -19.333 0.0318439 -1.3145e-009 8.75242e-006 -1.47246e-008 -3.58477 17.0295 2.14329 -4.01317 -1.66583 1.89031 38.5543 1.80358 0.0412721 43.0124 -24.8703 9.13528 14.4502 49.8759 -6.02991 -12.0073 9.36589 0.06621 -45.07 3.60618 -3.45924 -26.0603 -14.1724 6.54164 -4.16061 35.3903 -14.8279 5.82328 9.61819 -0.917488 -0.714796 -16.4384 -3.45473 -2.81573 -17.3598 3.06842 -7.99996 83.9144 -8.42464 11.4284 -6.49193 -0.281416 0.0462048 0.000530889 0.662642 
62.3941 99.0005 4.26153 -8.62606 -1.31742 -98.8526 -8.49026 -2.52836 -2.65381 1.35525 27.5414 23.7166 -0.444435 -20.1518 0.0587918 -1.3145e-009 8.75242e-006 -1.47246e-008 -3.29571 17.0364 1.39709 -2.82245 -1.68609 1.04635 38.6003 1.80678 0.0438426 40.4149 -24.232 3.84726 12.8718 47.5329 -2.65394 -11.3628 9.37212 0.335918 -44.6249 3.57351 -3.46102 -27.3101 -9.4191 5.23593 -1.59427 30.0048 -19.3798 5.82328 9.61819 -0.917488 -0.306618 -16.6172 -2.94928 -1.36281 -22.7854 2.36747 -6.39612 82.1624 -10.9071 10.9148 -7.80582 -0.159252 0.0462048 0.000530889 0.662642 
58.7162 99.4369 4.31366 -8.52558 -0.552148 -97.9303 -7.75463 1.31791 -1.82586 1.51608 24.7046 22.1912 0.110886 -20.9785 0.127032 -1.3145e-009 8.75242e-006 -1.47246e-008 -2.78586 17.5755 0.569826 -1.60586 -2.1583 0.180887 38.5318 1.80837 0.0469207 37.9528 -23.0539 -1.25436 11.3902 45.0197 0.982787 -11.0184 9.37636 0.483805 -44.347 3.55294 -3.46181 -27.5849 -7.27813 4.4025 0.497023 26.7338 -24.1781 5.82328 9.61819 -0.917488 0.145497 -16.529 -2.47806 -0.182324 -26.7287 1.66501 -4.01356 77.0775 -13.9414 10.5009 -9.50338 -0.0118708 0.0462048 0.000530889 0.662642 
55.0788 99.5216 4.32286 -8.64131 0.0220362 -96.9681 -7.09263 5.04451 -0.509036 1.63321 22.4414 20.2804 0.36421 -22.5085 0.172107 -1.3145e-009 8.75242e-006 -1.47246e-008 -2.36699 18.0486 -0.0971047 -0.60987 -2.11327 -0.519943 38.4198 1.80861 0.0482468 36.0939 -21.6252 -5.41757 10.1549 43.056 3.88653 -11.3748 9.35751 0.49187 -44.2273 3.54308 -3.46082 -26.9222 -10.317 3.23265 2.29865 28.6565 -28.9377 5.82328 9.61819 -0.917488 0.538538 -16.7021 -2.21313 0.366078 -28.8934 0.782701 -2.48167 68.7072 -15.4034 10.837 -11.187 0.144043 0.0462048 0.000530889 0.662642 
51.3758 99.3753 4.28092 -8.62797 0.249915 -96.0838 -6.6729 8.60272 0.873826 1.57006 20.2159 18.311 0.644017 -23.8301 0.226304 -1.3145e-009 8.75242e-006 -1.47246e-008 -2.19944 17.8093 -0.574335 0.295051 -1.30893 -1.04241 38.3863 1.80776 0.0452693 34.6587 -21.0111 -8.41982 9.53962 42.056 5.10212 -11.5638 9.34706 0.500847 -44.0904 3.52999 -3.45554 -26.5485 -13.0728 1.67325 4.26552 30.3862 -33.5606 5.82328 9.61819 -0.917488 0.950655 -17.131 -2.16935 0.280491 -29.4048 -0.308084 -1.61299 57.0766 -15.884 11.3695 -11.8041 0.218579 0.0462048 0.000530889 0.662642 
47.5805 99.106 4.22464 -8.36986 0.15958 -95.232 -6.57814 12.0226 1.73955 1.41946 17.7776 16.7915 1.1139 -24.5591 0.307662 -1.3145e-009 8.75242e-006 -1.47246e-008 -2.01888 17.1893 -0.968975 1.01907 -0.512879 -1.45961 38.4944 1.80607 0.0351378 33.0772 -22.3136 -10.7492 9.68898 43.0025 4.31762 -10.967 9.38457 0.417696 -43.8444 3.50679 -3.44675 -26.5428 -15.294 0.29147 6.16611 31.5588 -37.7744 5.82328 9.61819 -0.917488 1.33204 -17.2405 -2.34586 -0.179371 -28.5383 -1.57767 -1.23003 42.9724 -15.9863 11.4876 -11.7868 0.221502 0.0462048 0.000530889 0.662642 
43.592 98.4746 4.14236 -8.19902 -0.165779 -94.3629 -6.69757 15.1454 2.39594 1.2881 16.4311 15.4833 0.80618 -25.9586 0.277576 -1.3145e-009 8.75242e-006 -1.47246e-008 -1.72692 16.7797 -1.30919 1.27314 -0.278256 -1.77048 38.6346 1.8038 0.0254569 31.4527 -24.5001 -12.7463 10.1839 44.8032 2.32784 -10.292 9.44335 0.112756 -43.6043 3.48502 -3.43975 -26.7437 -16.8024 -0.733546 7.47183 32.0413 -40.9963 5.82328 9.61819 -0.917488 1.44327 -16.8224 -2.75411 -0.866925 -26.7326 -2.95686 -0.915338 29.0434 -15.3543 11.8183 -12.0043 0.255897 0.0462048 0.000530889 0.662642 
39.3376 97.4545 3.96909 -8.29398 -0.564456 -93.3643 -6.70602 17.8988 3.06009 1.24149 16.8924 13.8144 -0.715788 -28.0677 0.0257602 -1.3145e-009 8.75242e-006 -1.47246e-008 -1.54951 16.4744 -1.58856 1.50006 -0.114161 -2.05381 38.6761 1.80121 0.0234357 30.2148 -26.3837 -14.1338 10.6662 45.7051 0.105856 -10.2481 9.47765 -0.289528 -43.5427 3.48078 -3.44061 -27.0991 -17.6925 -1.63916 8.08139 32.1072 -42.8446 5.82328 9.61819 -0.917488 1.16155 -16.3842 -3.2596 -1.56949 -24.7298 -3.24827 -0.0490296 19.0403 -14.7751 13.0776 -12.5468 0.364098 0.0462048 0.000530889 0.662642 
34.8944 96.4429 3.65933 -8.32471 -0.730316 -92.1351 -6.29428 20.2134 3.05041 1.42611 18.4113 12.2316 -2.60367 -29.2747 -0.34589 -1.3145e-009 8.75242e-006 -1.47246e-008 -1.46911 15.7328 -1.83386 2.332 0.621983 -2.44869 38.6676 1.79833 0.0193755 29.284 -28.1109 -14.7458 11.076 45.7859 -1.78709 -10.4008 9.4916 -0.546785 -43.693 3.49722 -3.45061 -27.5251 -18.0134 -2.42965 8.20728 32.0962 -43.2966 5.82328 9.61819 -0.917488 0.644566 -16.3207 -3.68457 -1.82332 -23.3265 -1.9934 0.889849 15.2022 -15.6558 13.8364 -12.5369 0.394163 0.0462048 0.000530889 0.662642 
30.2401 95.6663 3.25052 -8.00593 -0.107405 -91.186 -5.12758 21.9839 1.63388 1.52701 20.528 12.1885 -4.82116 -29.2142 -0.784265 -1.3145e-009 8.75242e-006 -1.47246e-008 -0.545763 14.4268 -2.13869 3.20459 1.54226 -2.8079 38.7253 1.79295 0.00283083 28.5944 -29.3821 -14.8084 11.2279 45.6088 -2.86329 -10.2271 9.50134 -0.575795 -43.967 3.52838 -3.47094 -27.8272 -17.6386 -2.63153 7.87442 32.0676 -42.2948 5.82328 9.61819 -0.917488 0.108139 -16.2663 -3.9241 -0.822238 -23.0314 -2.28295 0.888154 16.9312 -15.9732 11.8308 -10.6375 0.131012 0.0462048 0.000530889 0.662642 
25.3184 95.0369 2.83579 -7.57064 1.28124 -90.867 -3.02696 23.2641 0.076203 1.10197 23.5699 13.2119 -8.40919 -28.2549 -1.41802 -1.3145e-009 8.75242e-006 -1.47246e-008 2.10819 13.1528 -2.48945 3.12539 1.79329 -2.78824 38.7824 1.78783 -0.0133641 28.2709 -30.0131 -14.3355 11.2043 45.6307 -3.17202 -10.1501 9.48862 -0.37595 -44.3033 3.56979 -3.50162 -28.0323 -16.7955 -1.71411 6.95 31.8533 -39.7718 5.82328 9.61819 -0.917488 -0.401585 -15.6919 -3.75691 1.69609 -23.8846 -3.01686 0.12258 22.347 -15.7174 7.30878 -7.33054 -0.185617 0.0462048 0.000530889 0.662642 
20.283 94.542 2.42212 -7.35206 3.36468 -91.5292 -0.541082 23.4516 0.764259 0.802469 28.9349 12.617 -12.2263 -24.8692 -1.76039 -1.3145e-009 8.75242e-006 -1.47246e-008 5.44023 12.5879 -2.74858 2.55944 1.28204 -2.49329 38.6692 1.78514 -0.01068 28.7049 -30.1132 -12.6529 11.2392 45.6113 -3.15463 -10.6481 9.43109 0.0522957 -44.6782 3.61194 -3.52734 -28.4432 -15.8522 0.220401 5.41048 31.1904 -35.9373 5.82328 9.61819 -0.917488 -0.884483 -14.8065 -2.94405 5.10615 -24.8497 -2.29516 -1.03037 28.8941 -15.0907 2.73469 -5.57921 -0.218367 0.0462048 0.000530889 0.662642 
15.4474 94.2847 1.92425 -7.37432 4.84618 -92.0837 1.75136 20.9466 1.74209 0.899817 38.4474 11.3878 -12.8828 -16.5556 -0.970282 -1.3145e-009 8.75242e-006 -1.47246e-008 7.46145 12.6832 -3.03129 2.76732 0.660073 -2.44219 38.4365 1.78227 0.00276833 30.1881 -29.9727 -9.31683 11.2466 45.025 -2.80748 -11.2972 9.3629 0.477429 -45.0043 3.63592 -3.52477 -29.2156 -14.2297 2.18059 3.46608 29.8689 -31.2983 5.82328 9.61819 -0.917488 -1.15489 -14.3397 -1.83856 7.97474 -24.6385 0.612196 -1.08789 34.3291 -16.4991 0.0891098 -7.52055 -0.172507 0.0462048 0.000530889 0.662642 
11.1163 94.1692 1.39178 -7.44732 5.71792 -91.321 3.67636 15.1615 0.716275 1.14419 51.0887 11.4042 -10.544 -4.76066 0.276178 -1.3145e-009 8.75242e-006 -1.47246e-008 8.50626 12.974 -3.52904 3.56894 0.496992 -2.67971 38.312 1.77848 0.00405111 32.5733 -29.6808 -4.95771 10.844 43.4313 -1.44363 -11.5504 9.34303 0.552448 -45.1261 3.63028 -3.49565 -30.2263 -10.6445 3.10036 1.60799 28.0659 -26.6685 5.82328 9.61819 -0.917488 -0.987985 -14.5606 -1.42823 9.54994 -23.4008 1.5488 -1.19502 37.9479 -17.8436 -0.37915 -11.7516 -0.207929 0.0462048 0.000530889 0.662642 
